# Blender v2.80 (sub 75) OBJ File: 'untitled.blend'
# www.blender.org
mtllib BoxBottom.mtl
o BOX
v -0.150624 -0.091948 -0.160430
v -0.148921 -0.123932 0.082815
v -0.147893 -0.122887 -0.083142
v 0.120800 -0.123252 0.196761
v 0.120884 -0.123200 0.192787
v 0.144155 -0.123859 0.191846
v 0.050000 -0.121390 0.082368
v 0.050000 -0.121390 0.196540
v 0.149866 -0.093274 0.194629
v 0.117741 -0.091815 0.200334
v -0.152919 -0.094247 -0.019173
v 0.148923 -0.123916 0.082816
v 0.146203 -0.123916 0.189766
v -0.151271 -0.093630 0.192168
v 0.151724 -0.092078 -0.196951
v 0.108854 -0.091229 -0.199866
v 0.152763 -0.091796 -0.158454
v 0.147048 -0.129700 -0.200049
v -0.143322 -0.123853 0.195214
v 0.150814 -0.093648 0.119176
v -0.148063 -0.091851 0.200100
v -0.146702 -0.129700 -0.200119
v -0.143193 -0.122835 -0.196008
v -0.049999 -0.121376 -0.082783
v -0.146534 -0.122887 -0.192688
v -0.049999 -0.121376 -0.196555
v 0.147920 -0.122811 -0.083154
v 0.147920 -0.122811 -0.192965
v 0.049999 -0.121376 -0.083783
v 0.144870 -0.122766 -0.196032
v 0.049999 -0.121376 -0.196555
v -0.146391 -0.123932 0.192237
v -0.050000 -0.121390 0.084968
v -0.050000 -0.121390 0.193040
v 0.117112 -0.091305 -0.199882
v -0.109355 -0.092476 -0.199904
v 0.110114 -0.091795 0.200385
v 0.152076 -0.093796 0.080000
v 0.148675 -0.091585 -0.200004
v 0.145668 -0.126318 0.199977
v -0.147060 -0.126318 0.200078
v -0.049658 -0.126318 0.201098
v 0.145218 -0.129753 0.198205
v 0.146100 -0.126318 0.196400
v 0.145218 -0.130516 0.194760
v -0.147060 -0.129753 0.198305
v -0.150082 -0.126318 0.195402
v -0.147060 -0.134100 0.193861
v -0.148460 -0.134100 0.080285
v -0.049658 -0.134100 0.194881
v -0.150146 -0.126160 0.189152
v -0.147060 -0.130516 0.193861
v -0.151125 -0.130103 0.080000
v -0.150115 -0.130600 0.188845
v -0.146702 -0.134100 -0.200115
v -0.150027 -0.129821 -0.196702
v 0.149544 -0.127616 0.194631
v 0.151010 -0.131100 0.191323
v 0.145218 -0.134100 0.194760
v 0.049658 -0.134100 0.192881
v 0.147000 -0.134100 0.080000
v 0.050000 -0.134100 -0.201500
v 0.146950 -0.134100 -0.200046
v 0.147482 -0.134100 -0.080303
v 0.150095 -0.129812 -0.196952
v -0.050000 -0.134100 -0.203500
v -0.148000 -0.134100 -0.080000
v -0.149069 -0.092234 0.199050
v 0.049658 -0.129753 0.197325
v 0.049658 -0.126318 0.199098
v 0.150143 -0.131103 0.080000
v -0.050000 -0.126390 0.084134
v -0.049999 -0.126376 -0.081949
v -0.148921 -0.128932 0.081987
v -0.147893 -0.127887 -0.082311
v -0.147886 -0.092262 -0.198911
v -0.049658 -0.129753 0.199325
v 0.050000 -0.126390 0.081534
v 0.049999 -0.126376 -0.082949
v 0.152089 -0.091076 -0.025155
v 0.150383 -0.091857 -0.198322
v -0.049658 -0.130516 0.194881
v 0.049658 -0.130516 0.192881
v -0.113988 -0.091732 0.200441
v 0.046184 -0.091998 0.199796
v -0.112416 -0.092446 -0.199911
v 0.150205 -0.131107 -0.080000
v 0.113105 -0.091800 0.200372
v -0.117155 -0.092398 -0.199930
v -0.046137 -0.091492 0.201132
v -0.152368 -0.092365 0.147730
v -0.151017 -0.130523 -0.080373
v -0.049658 -0.129700 -0.203617
v -0.048100 -0.091492 0.201131
v 0.152928 -0.091338 -0.080000
v 0.148923 -0.128916 0.081988
v 0.147920 -0.127811 -0.082322
v 0.049658 -0.129700 -0.201617
v 0.111520 -0.091254 -0.199868
v -0.106597 -0.092502 -0.199902
v 0.000000 -0.134100 0.080142
v 0.000000 -0.134100 0.194631
v 0.000000 -0.134100 -0.202500
v 0.000000 -0.134100 -0.080152
v -0.116693 -0.091738 0.200424
v 0.119034 -0.091322 -0.199891
v -0.146719 -0.092101 -0.200042
v -0.151051 -0.093378 0.195920
v 0.043891 -0.091994 0.199804
v 0.151382 -0.093200 0.191633
v -0.021136 -0.092965 -0.202188
v 0.115785 -0.091807 0.200354
v 0.150383 -0.093248 0.193823
v -0.118674 -0.091744 0.200406
v 0.114473 -0.091281 -0.199874
v -0.115157 -0.092418 -0.199920
v -0.043814 -0.091493 0.201133
v -0.153038 -0.092725 0.080000
v -0.150036 -0.092577 -0.196701
v -0.043670 -0.092753 -0.202180
v 0.145966 -0.091932 0.200027
v -0.151270 -0.093251 -0.085800
v 0.043822 -0.091645 -0.200897
v 0.022040 -0.091990 0.199805
v 0.149769 -0.093037 0.194785
v 0.146251 -0.092331 0.196574
v 0.145965 -0.092043 0.198956
v 0.147460 -0.092573 0.195968
vt 0.715927 0.621955
vt 0.715076 0.641878
vt 0.621646 0.561123
vt 0.719279 0.561277
vt 0.719356 0.621890
vt 0.621000 0.645809
vt 0.713278 0.643629
vt 0.383651 0.012965
vt 0.416405 0.045989
vt 0.413718 0.045977
vt 0.411318 0.045967
vt 0.409571 0.045962
vt 0.470896 0.391518
vt 0.470528 0.475322
vt 0.376363 0.392534
vt 0.373494 0.395389
vt 0.372872 0.475170
vt 0.470424 0.644736
vt 0.375663 0.644597
vt 0.470372 0.560908
vt 0.373021 0.641983
vt 0.372715 0.560763
vt 0.621463 0.390876
vt 0.715865 0.393175
vt 0.621802 0.475562
vt 0.718429 0.395805
vt 0.717709 0.475699
vt 0.652255 0.048062
vt 0.625310 0.047815
vt 0.652194 0.012879
vt 0.389112 0.208557
vt 0.417155 0.240864
vt 0.415352 0.240877
vt 0.419617 0.240843
vt 0.478037 0.207656
vt 0.479772 0.240440
vt 0.656385 0.206705
vt 0.655964 0.203452
vt 0.659676 0.206498
vt 0.656107 0.200409
vt 0.388735 0.205374
vt 0.384150 0.208229
vt 0.017590 0.391049
vt 0.115371 0.390200
vt 0.015151 0.474576
vt 0.378470 0.208051
vt 0.388020 0.201599
vt 0.380612 0.245030
vt 0.340409 0.244548
vt 0.278422 0.243724
vt 0.278581 0.204634
vt 0.378269 0.204212
vt 0.356777 0.392641
vt 0.360334 0.388438
vt 0.360566 0.392526
vt 0.021625 0.014939
vt 0.018087 0.016000
vt 0.018420 0.011727
vt 0.024929 0.011946
vt 0.024651 0.047353
vt 0.022462 0.047313
vt 0.015809 0.641849
vt 0.017691 0.559811
vt 0.114641 0.643726
vt 0.357373 0.561371
vt 0.355809 0.644575
vt 0.252683 0.644651
vt 0.359596 0.644730
vt 0.359403 0.648454
vt 0.359325 0.475592
vt 0.253369 0.391117
vt 0.568784 0.203730
vt 0.568781 0.207057
vt 0.021826 0.006326
vt 0.126393 0.008171
vt 0.126389 0.011903
vt 0.617428 0.475511
vt 0.474903 0.475300
vt 0.617091 0.390780
vt 0.475269 0.391468
vt 0.478013 0.204329
vt 0.617272 0.561159
vt 0.474748 0.560941
vt 0.477993 0.200449
vt 0.568817 0.199854
vt 0.278850 0.200506
vt 0.382883 0.200243
vt 0.272341 0.011685
vt 0.222324 0.046203
vt 0.126402 0.046860
vt 0.382868 0.045810
vt 0.380711 0.045590
vt 0.188002 0.242335
vt 0.132356 0.204143
vt 0.014602 0.559801
vt 0.012725 0.641779
vt 0.382410 0.008346
vt 0.379556 0.012905
vt 0.272621 0.008208
vt 0.615699 0.047715
vt 0.558299 0.047442
vt 0.563675 0.012790
vt 0.014504 0.390960
vt 0.014721 0.385915
vt 0.363115 0.475843
vt 0.012070 0.474553
vt 0.023273 0.199854
vt 0.132690 0.200122
vt 0.026403 0.204500
vt 0.874243 0.818133
vt 0.873371 0.822199
vt 0.711226 0.816337
vt 0.711984 0.820412
vt 0.021421 0.047493
vt 0.019054 0.047857
vt 0.272204 0.045948
vt 0.660154 0.238568
vt 0.657967 0.238954
vt 0.387420 0.240531
vt 0.384116 0.239331
vt 0.127327 0.241209
vt 0.059357 0.240003
vt 0.344131 0.045624
vt 0.616628 0.645891
vt 0.474798 0.644797
vt 0.537804 0.047250
vt 0.563710 0.239493
vt 0.543835 0.239584
vt 0.618210 0.047740
vt 0.623492 0.047796
vt 0.090689 0.046942
vt 0.626852 0.239414
vt 0.624130 0.239426
vt 0.656538 0.012775
vt 0.656545 0.047654
vt 0.653736 0.047925
vt 0.013095 0.647575
vt 0.472943 0.012893
vt 0.478457 0.046620
vt 0.418830 0.046004
vt 0.361171 0.561154
vt 0.861050 0.834004
vt 0.706057 0.834692
vt 0.860270 0.829923
vt 0.706828 0.830613
vt 0.565796 0.239485
vt 0.483669 0.240409
vt 0.378902 0.045416
vt 0.115001 0.517565
vt 0.016421 0.517099
vt 0.358353 0.518424
vt 0.253017 0.518088
vt 0.656993 0.239046
vt 0.631071 0.239392
vt 0.620996 0.047769
vt 0.481557 0.240426
vt 0.388729 0.240855
vt 0.629291 0.239402
vt 0.026306 0.239355
vt 0.021590 0.047290
vt 0.017820 0.048064
vn 0.0273 0.9996 -0.0011
vn 0.0275 0.9996 -0.0011
vn 0.0130 0.9999 0.0001
vn 0.0125 0.9999 -0.0000
vn 0.0262 0.9996 0.0136
vn 0.0255 0.9997 0.0006
vn 0.0266 0.9996 -0.0003
vn 0.0057 0.0058 -1.0000
vn 0.0324 -0.1641 -0.9859
vn 0.0313 -0.1651 -0.9858
vn 0.0302 -0.1661 -0.9857
vn 0.0294 -0.1668 -0.9856
vn -0.0154 0.9999 -0.0002
vn -0.0078 1.0000 -0.0001
vn -0.0156 0.9999 -0.0001
vn -0.0156 0.9999 -0.0000
vn -0.0078 1.0000 0.0000
vn 0.0147 0.9999 0.0000
vn 0.0073 1.0000 0.0000
vn -0.0257 0.9997 0.0006
vn -0.0259 0.9997 0.0004
vn -0.0130 0.9999 0.0002
vn -0.0262 0.9997 0.0002
vn -0.0131 0.9999 0.0000
vn -0.0736 -0.2674 -0.9608
vn 0.1610 -0.0651 -0.9848
vn -0.0204 0.0074 -0.9998
vn -0.0069 -0.0473 0.9989
vn -0.0327 -0.1981 0.9796
vn -0.0350 -0.1960 0.9800
vn -0.0350 -0.1956 0.9801
vn -0.0027 -0.0148 0.9999
vn -0.1069 -0.0030 0.9943
vn 0.9930 -0.0089 0.1180
vn 0.9747 -0.2098 0.0771
vn 0.9928 -0.0124 0.1188
vn 0.9734 -0.2239 0.0496
vn -0.0132 -0.9240 0.3821
vn -0.9606 -0.0506 0.2734
vn -0.0008 -1.0000 0.0000
vn -0.0046 -1.0000 0.0001
vn 0.0000 -1.0000 -0.0000
vn -0.9990 -0.0414 0.0197
vn -0.0195 -0.9851 0.1708
vn -0.9698 -0.2158 0.1135
vn -0.9945 -0.1037 0.0177
vn -0.9849 -0.1700 -0.0327
vn -0.9977 -0.0679 0.0049
vn -0.9065 -0.4217 0.0198
vn -0.3439 -0.0007 -0.9390
vn -0.9994 -0.0186 -0.0285
vn 0.7830 -0.1363 0.6070
vn 0.4539 -0.0098 0.8910
vn 0.0088 -0.0157 0.9998
vn 0.9974 -0.0724 0.0009
vn 0.8823 -0.3491 0.3156
vn 0.8700 -0.2215 0.4404
vn 0.0010 -1.0000 -0.0008
vn 0.0035 -1.0000 0.0000
vn 0.0014 -1.0000 -0.0000
vn 0.9948 -0.0979 -0.0284
vn 0.0302 -0.0014 -0.9995
vn -0.0043 -1.0000 -0.0000
vn -0.0014 -1.0000 -0.0000
vn 0.0015 -0.9241 0.3821
vn -0.0069 -0.6632 0.7484
vn -0.0013 -0.0366 0.9993
vn 0.0015 -0.0246 0.9997
vn 0.9959 -0.0903 0.0048
vn -0.0125 0.9999 0.0001
vn -0.0095 1.0000 0.0021
vn -0.0222 0.9998 0.0022
vn -0.0155 0.9999 0.0063
vn 0.0019 -0.9223 0.3864
vn 0.0127 0.9999 0.0001
vn 0.0092 1.0000 0.0022
vn 0.0008 -0.9856 0.1692
vn 0.0000 -0.9856 0.1692
vn 0.9444 -0.2220 0.2425
vn 0.9878 -0.0718 0.1378
vn 0.9794 -0.1944 0.0546
vn 0.0327 -0.2333 -0.9719
vn 0.5184 -0.2835 -0.8068
vn -0.9808 -0.1806 -0.0731
vn -0.9819 -0.0951 0.1640
vn -0.0082 0.0040 1.0000
vn -0.0083 -0.0000 1.0000
vn -0.0063 -0.0000 1.0000
vn 0.0674 -0.1145 -0.9911
vn -0.0135 0.0217 -0.9997
vn 0.0134 0.0025 -0.9999
vn -0.0086 0.1645 -0.9863
vn -0.0083 0.1644 -0.9864
vn -0.0044 0.1645 -0.9864
vn -0.0040 0.1645 -0.9864
vn -0.0271 0.0000 0.9996
vn -0.0354 0.0000 0.9994
vn -0.8541 0.0000 0.5202
vn 0.0051 -0.0269 -0.9996
vn 0.0019 0.1645 0.9864
vn 0.0018 0.1645 0.9864
vn 0.0030 0.1645 0.9864
vn 0.0029 0.1645 0.9864
vn -0.0069 0.0040 1.0000
vn -0.0073 0.0000 1.0000
vn 1.0000 -0.0012 0.0015
vn 1.0000 -0.0010 0.0062
vn 1.0000 0.0010 0.0063
vn 0.3930 -0.1688 0.9039
vn 0.5510 -0.1133 0.8268
vn 0.9799 -0.1726 0.0996
vn 0.9761 -0.0001 0.2173
vn 0.9996 -0.0164 0.0236
vn -0.5012 -0.1122 0.8580
vn -0.8374 -0.2738 0.4730
vn -0.9873 -0.1528 -0.0436
vn -0.9872 -0.1548 0.0385
vn 0.9782 -0.2051 -0.0311
vn 0.0218 0.9998 0.0023
vn 0.0146 0.9999 0.0066
vn 0.0107 0.0112 -0.9999
vn -0.0678 -0.0902 0.9936
vn -0.0686 -0.0643 0.9956
vn 0.1576 -0.0618 -0.9856
vn 0.1601 -0.0643 -0.9850
vn -0.0039 0.1641 0.9864
vn -0.0039 0.1640 0.9864
vn -0.0062 0.1640 0.9864
vn 0.9596 -0.2812 0.0026
vn -0.0896 -0.0057 0.9960
vn -0.0374 0.0720 0.9967
vn -0.8997 -0.3495 -0.2614
vn -0.6412 -0.3333 -0.6912
vn 0.0172 0.1634 -0.9864
vn 0.0178 0.0188 -0.9997
vn 0.0215 0.0074 -0.9997
vn -0.1080 -0.1114 -0.9879
vn 0.0179 -0.0248 -0.9995
vn -1.0000 -0.0072 -0.0015
vn -0.9998 -0.0056 0.0171
vn -1.0000 -0.0010 0.0060
vn -1.0000 0.0010 0.0061
vn -0.0917 0.0211 0.9956
vn 0.0087 0.1634 -0.9865
vn -0.0908 0.0153 0.9957
vn -0.0022 -0.9780 0.2086
vn 0.8301 -0.3742 -0.4135
vn 0.0201 -0.0266 -0.9994
vn 0.0197 0.2002 0.9796
vn -0.1775 0.0037 0.9841
vn -0.0843 -0.0009 0.9964
vn 0.1588 -0.0631 -0.9853
vn -0.1018 -0.0029 0.9948
vn 0.0577 -0.0804 0.9951
vn -0.0870 -0.0032 0.9962
vn 0.8424 -0.0079 0.5389
vn 0.4471 -0.0066 0.8945
vn 1.0000 -0.0098 0.0004
usemtl BOX
s 1
f 5/1/1 6/2/2 7/3/3
f 5/1/1 8/4/4 4/5/5
f 7/3/3 8/4/4 5/1/1
f 12/6/6 7/3/3 13/7/7
f 6/2/2 13/7/7 7/3/3
f 18/8/8 99/9/9 115/10/10
f 18/8/8 35/11/11 106/12/12
f 18/8/8 115/10/10 35/11/11
f 3/13/13 24/14/14 25/15/15
f 23/16/16 25/15/15 24/14/14
f 24/14/14 26/17/17 23/16/16
f 27/18/18 28/19/18 29/20/19
f 30/21/18 29/20/19 28/19/18
f 29/20/19 30/21/18 31/22/19
f 2/23/20 32/24/21 33/25/22
f 19/26/23 33/25/22 32/24/21
f 33/25/22 19/26/23 34/27/24
f 107/28/25 89/29/26 22/30/27
f 41/31/28 105/32/29 114/33/30
f 41/31/28 84/34/31 105/32/29
f 41/31/28 42/35/32 94/36/33 84/34/31
f 40/37/34 43/38/35 44/39/36
f 44/39/36 43/38/35 45/40/37
f 46/41/38 41/31/28 47/42/39
f 48/43/40 49/44/41 50/45/42
f 51/46/43 52/47/44 47/42/39
f 46/41/38 47/42/39 52/47/44
f 51/46/43 14/48/45 91/49/46
f 51/46/43 91/49/46 118/50/47 53/51/48
f 53/51/48 54/52/49 51/46/43
f 55/53/50 56/54/51 22/55/27
f 57/56/52 44/57/53 45/58/54
f 57/56/52 58/59/55 110/60/56 113/61/57
f 59/62/58 60/63/42 61/64/59
f 62/65/42 63/66/60 64/67/59
f 18/68/8 65/69/61 63/66/62
f 66/70/42 67/71/63 55/53/64
f 69/72/65 43/38/66 70/73/67
f 40/37/68 70/73/67 43/38/66
f 59/74/58 61/75/59 58/59/55
f 71/76/69 58/59/55 61/75/59
f 72/77/70 73/78/71 74/79/72
f 75/80/73 74/79/72 73/78/71
f 42/35/32 41/31/28 77/81/74
f 46/41/38 77/81/74 41/31/28
f 78/82/75 79/83/76 72/77/70
f 73/78/71 72/77/70 79/83/76
f 77/81/74 82/84/77 69/72/65
f 83/85/78 69/72/65 82/84/77
f 53/51/48 49/86/41 54/52/49
f 48/87/40 54/52/49 49/86/41
f 26/17/17 24/14/14 31/22/19
f 29/20/19 31/22/19 24/14/14
f 71/76/69 87/88/79 80/89/80 38/90/81
f 39/91/82 81/92/83 18/8/8
f 8/4/4 7/3/3 34/27/24
f 33/25/22 34/27/24 7/3/3
f 53/51/48 118/50/47 11/93/84 92/94/85
f 83/95/86 60/63/87 45/96/54
f 59/62/88 45/96/54 60/63/87
f 63/97/60 65/98/61 64/99/59
f 87/88/79 64/99/59 65/98/61
f 100/100/89 120/101/90 93/102/91 22/30/27
f 7/3/92 78/82/93 33/25/94
f 72/77/95 33/25/94 78/82/93
f 51/46/43 54/52/49 52/47/44
f 48/43/96 52/103/97 54/104/98
f 55/53/50 22/55/27 66/70/99
f 93/105/91 66/70/99 22/55/27
f 24/14/100 73/78/101 29/20/102
f 79/83/103 29/20/102 73/78/101
f 52/103/97 48/43/96 82/106/104
f 50/45/105 82/106/104 48/43/96
f 55/107/64 67/108/63 92/94/85
f 92/94/85 56/109/51 55/107/64
f 2/110/106 74/111/107 3/112/108
f 75/113/108 3/112/108 74/111/107
f 57/56/52 125/114/109 128/115/110 44/57/53
f 106/12/12 39/91/82 18/8/8
f 95/116/111 80/89/80 87/88/79
f 44/39/36 126/117/112 127/118/113 40/37/34
f 47/42/39 41/31/28 68/119/114 108/120/115
f 92/94/85 122/121/116 1/122/117 56/109/51
f 87/88/79 65/98/61 17/123/118 95/116/111
f 78/82/75 96/124/119 79/83/76
f 97/125/120 79/83/76 96/124/119
f 120/101/90 111/126/121 93/102/91
f 109/127/122 124/128/123 70/73/67
f 22/30/27 36/129/124 100/100/89
f 42/35/32 77/81/74 70/73/67
f 69/72/65 70/73/67 77/81/74
f 89/29/26 116/130/125 22/30/27
f 29/20/102 79/83/103 27/18/126
f 97/125/127 27/18/126 79/83/103
f 71/76/69 61/75/59 87/88/79
f 64/99/59 87/88/79 61/75/59
f 24/14/100 3/13/128 73/78/101
f 75/80/128 73/78/101 3/13/128
f 38/90/81 20/131/129 71/76/69
f 88/132/130 37/133/131 40/37/68
f 77/81/74 46/41/38 82/84/77
f 52/47/44 82/84/77 46/41/38
f 56/134/51 119/135/132 76/136/133 22/30/27
f 33/25/94 72/77/95 2/23/134
f 74/79/134 2/23/134 72/77/95
f 58/59/55 71/76/69 20/131/129 110/60/56
f 58/59/55 57/56/52 45/58/54
f 45/96/54 59/62/88 58/137/55
f 49/86/41 53/51/48 92/94/85
f 92/94/85 67/108/63 49/86/41
f 98/138/135 93/102/91 111/126/121 123/139/136
f 18/8/8 98/138/135 123/139/136 16/140/137
f 63/66/62 62/65/138 18/68/8
f 98/141/135 18/68/8 62/65/138
f 12/142/139 27/143/140 96/144/141
f 97/145/142 96/144/141 27/143/140
f 40/37/68 37/133/131 85/146/143 70/73/67
f 7/3/92 12/6/144 78/82/93
f 96/124/144 78/82/93 12/6/144
f 42/35/32 70/73/67 124/128/123 117/147/145
f 83/85/78 45/40/146 69/72/65
f 43/38/66 69/72/65 45/40/146
f 85/146/143 109/127/122 70/73/67
f 108/120/115 14/48/45 51/46/43 47/42/39
f 65/98/61 18/8/8 81/92/83 15/148/147
f 64/67/59 61/64/59 101/149/42
f 101/149/42 60/63/42 102/150/42
f 60/63/42 101/149/42 61/64/59
f 66/70/99 93/105/91 103/151/148
f 98/141/135 103/151/148 93/105/91
f 103/151/148 98/141/135 62/65/138
f 82/106/104 50/45/105 102/150/149
f 102/150/149 60/63/87 83/95/86
f 82/106/104 102/150/149 83/95/86
f 67/71/63 66/70/42 104/152/42
f 104/152/42 66/70/42 103/151/42
f 101/149/42 104/152/42 64/67/59
f 49/44/41 67/71/63 101/149/42
f 104/152/42 101/149/42 67/71/63
f 64/67/59 104/152/42 62/65/42
f 103/151/42 62/65/42 104/152/42
f 49/44/41 101/149/42 50/45/42
f 102/150/42 50/45/42 101/149/42
f 16/140/137 99/9/9 18/8/8
f 76/136/133 107/28/25 22/30/27
f 121/153/150 10/154/151 40/37/68
f 86/155/152 36/129/124 22/30/27
f 117/147/145 90/156/153 42/35/32
f 21/157/154 68/119/114 41/31/28
f 114/33/30 21/157/154 41/31/28
f 15/148/147 17/123/118 65/98/61
f 10/154/151 112/158/155 40/37/68
f 1/122/117 119/159/132 56/109/51
f 116/130/125 86/155/152 22/30/27
f 113/61/57 9/160/156 57/56/52
f 112/158/155 88/132/130 40/37/68
f 90/156/153 94/36/33 42/35/32
f 11/93/84 122/121/116 92/94/85
f 128/115/110 126/161/157 44/57/53
f 127/118/113 121/153/158 40/37/34
