# Blender v2.80 (sub 75) OBJ File: ''
# www.blender.org
mtllib untitled.mtl
o BOX_LID_BOX.001
v 0.153173 -0.000189 0.216215
v 0.153206 -0.000073 0.212633
v 0.148216 0.003021 0.212772
v 0.152797 -0.051379 0.208961
v 0.152857 -0.046313 0.207025
v 0.152820 -0.046447 0.211122
v 0.157081 0.013776 -0.213390
v 0.152060 0.016759 -0.209838
v 0.157048 0.013659 -0.209809
v 0.156603 -0.037776 -0.209484
v 0.156662 -0.032714 -0.211320
v 0.156625 -0.032847 -0.207223
v -0.157101 0.002483 0.213480
v -0.152029 0.005608 0.210126
v -0.157068 0.002600 0.209899
v -0.157478 -0.048706 0.206225
v -0.157454 -0.043774 0.208387
v -0.157417 -0.043640 0.204291
v -0.153194 0.016449 -0.216126
v -0.153226 0.016332 -0.212544
v -0.148185 0.019346 -0.212484
v -0.153673 -0.035103 -0.212219
v -0.153650 -0.030174 -0.209958
v -0.153612 -0.030041 -0.214054
v -0.050225 -0.035913 -0.213806
v 0.053182 -0.036869 -0.210895
v -0.050251 -0.035037 -0.209975
v 0.053156 -0.035993 -0.207064
v -0.053690 0.001544 0.215890
v -0.054076 -0.044830 0.214379
v -0.157487 -0.043890 0.211969
v -0.153609 -0.033610 -0.104538
v -0.157609 -0.033575 -0.104573
v -0.153683 -0.030295 -0.206260
v 0.157537 0.008174 -0.100349
v 0.156961 0.011494 -0.202076
v 0.157166 -0.036287 -0.101798
v 0.156591 -0.032968 -0.203524
v -0.153699 -0.034228 -0.208389
v 0.152772 -0.050496 0.212574
v 0.152787 -0.046563 0.214703
v 0.049334 -0.049654 0.213162
v 0.049349 -0.045721 0.215291
v -0.161033 -0.036860 -0.002882
v -0.157033 -0.036894 -0.002847
v 0.156612 0.004868 0.001363
v 0.156240 -0.039593 -0.000086
v 0.156575 -0.036900 -0.205654
v 0.053171 -0.032060 -0.204936
v -0.054091 -0.048763 0.212250
v -0.161958 -0.040167 0.098830
v -0.157958 -0.040201 0.098866
v 0.155186 0.001566 0.103071
v 0.154816 -0.042896 0.101623
v 0.155054 -0.046441 0.210379
v -0.050236 -0.031104 -0.207846
v 0.053661 0.014683 -0.214802
v -0.157502 -0.047824 0.209840
v 0.152891 -0.046194 0.203327
v 0.153261 -0.001732 0.204775
v 0.152839 -0.050256 0.205195
v 0.049358 -0.050537 0.209548
v -0.153238 0.010851 -0.103089
v -0.153313 0.014167 -0.204810
v 0.057747 0.011771 -0.123821
v 0.053541 0.012401 -0.203487
v 0.158882 -0.032758 -0.210538
v -0.049746 0.015639 -0.217713
v -0.054067 -0.049646 0.208637
v -0.156663 0.007567 -0.001398
v 0.160241 -0.039628 -0.000050
v 0.161166 -0.036322 -0.101763
v 0.160627 0.006745 0.001460
v 0.161552 0.010053 -0.100252
v 0.049753 0.008276 -0.014507
v -0.049866 0.013357 -0.206397
v 0.053274 -0.031691 -0.216313
v 0.156694 -0.032598 -0.214901
v -0.157588 0.004260 0.100315
v 0.158816 -0.042931 0.101658
v 0.159202 0.003443 0.103169
v 0.048740 0.004655 0.096869
v -0.159675 -0.043730 0.207605
v -0.050132 -0.030735 -0.219224
v 0.049401 -0.049414 0.205783
v -0.157013 0.000941 0.202041
v -0.157383 -0.043521 0.200591
v 0.049823 -0.000890 0.205363
v -0.157435 -0.047583 0.202461
v -0.153580 -0.029925 -0.217636
v -0.054024 -0.048523 0.204871
v -0.055503 0.012747 -0.124819
v 0.155440 -0.000068 0.211890
v 0.156643 -0.036661 -0.213033
v -0.155847 -0.030047 -0.213311
v 0.053223 -0.035753 -0.214444
v -0.160647 0.009513 -0.001371
v -0.157222 0.012799 -0.103062
v -0.063498 0.009252 -0.015505
v -0.050184 -0.034797 -0.217355
v 0.049452 -0.045351 0.203914
v -0.161572 0.006207 0.100341
v -0.064511 0.005631 0.095871
v 0.159269 0.013615 -0.209026
v -0.153632 -0.033987 -0.215768
v -0.053972 -0.044460 0.203003
v 0.049735 0.000653 0.216803
v -0.053602 0.000001 0.204451
v -0.159289 0.002643 0.209116
v 0.048076 0.013287 -0.014359
v 0.056087 0.016845 -0.125558
v -0.061737 0.014234 -0.015327
v -0.053726 0.017790 -0.126526
v -0.155461 0.016327 -0.211801
v 0.047046 0.009606 0.098901
v -0.062767 0.010552 0.097933
v 0.160624 -0.032885 -0.207089
v 0.161010 0.013489 -0.205578
v 0.157244 0.000029 0.208472
v 0.156858 -0.046345 0.206961
v -0.161030 0.002770 0.205667
v -0.161416 -0.043604 0.204156
v -0.157265 0.016231 -0.208382
v -0.157651 -0.030143 -0.209894
v -0.152564 0.019211 -0.208244
v 0.156360 0.016550 -0.205520
v 0.152594 0.003090 0.208530
v -0.156330 0.005752 0.205807
v -0.048081 0.018565 -0.214100
v 0.051983 0.017637 -0.211219
v 0.156918 0.013172 -0.101994
v 0.155977 0.009807 0.001518
v 0.154535 0.006447 0.105026
v 0.048121 0.003834 0.213389
v -0.051961 0.004697 0.212508
v -0.156888 0.009129 0.102281
v -0.155946 0.012494 -0.001232
v -0.152506 0.015837 -0.104722
vt 0.447300 0.949009
vt 0.444465 0.949921
vt 0.443464 0.944503
vt 0.445241 0.992838
vt 0.443288 0.988916
vt 0.446593 0.988702
vt 0.098074 0.949343
vt 0.101881 0.944812
vt 0.100895 0.950249
vt 0.100074 0.993103
vt 0.098727 0.988965
vt 0.102033 0.989184
vt 0.447083 0.697578
vt 0.443255 0.702098
vt 0.444248 0.696671
vt 0.444952 0.653554
vt 0.446310 0.657689
vt 0.443004 0.657478
vt 0.097561 0.698077
vt 0.100400 0.697167
vt 0.101426 0.702575
vt 0.099951 0.654237
vt 0.101875 0.658174
vt 0.098568 0.658363
vt 0.052563 0.781842
vt 0.053257 0.865608
vt 0.049397 0.781834
vt 0.050080 0.865662
vt 0.448072 0.781628
vt 0.485451 0.781421
vt 0.484782 0.697624
vt 0.582101 0.906654
vt 0.585407 0.906649
vt 0.582433 0.985948
vt 0.990869 0.276018
vt 0.991884 0.360037
vt 0.954143 0.276233
vt 0.955106 0.360403
vt 0.049978 0.697896
vt 0.053162 0.697962
vt 0.488573 0.948991
vt 0.484949 0.948970
vt 0.489137 0.865152
vt 0.485529 0.865133
vt 0.586792 0.827151
vt 0.583488 0.827164
vt 0.990766 0.192048
vt 0.954017 0.192010
vt 0.050688 0.949414
vt 0.046464 0.865701
vt 0.489060 0.781398
vt 0.586775 0.747493
vt 0.583470 0.747488
vt 0.991096 0.108018
vt 0.954349 0.107817
vt 0.955026 0.017233
vt 0.955029 0.020619
vt 0.953186 0.017865
vt 0.045793 0.781830
vt 0.097418 0.865238
vt 0.488407 0.697597
vt 0.955034 0.023677
vt 0.991802 0.023965
vt 0.442125 0.992230
vt 0.440304 0.989110
vt 0.046355 0.697865
vt 0.491587 0.949031
vt 0.492139 0.865178
vt 0.545259 0.906466
vt 0.545741 0.986039
vt 0.733294 0.581498
vt 0.815894 0.595670
vt 0.734308 0.644932
vt 0.819881 0.645323
vt 0.047072 0.949436
vt 0.010521 0.865912
vt 0.011117 0.949635
vt 0.096431 0.781851
vt 0.492062 0.781368
vt 0.546764 0.826946
vt 0.272670 0.991569
vt 0.189865 0.991505
vt 0.272566 0.954059
vt 0.190365 0.953914
vt 0.821599 0.527428
vt 0.733191 0.518100
vt 0.103191 0.992499
vt 0.105016 0.989381
vt 0.009882 0.781870
vt 0.059885 0.865515
vt 0.060490 0.949345
vt 0.491421 0.697551
vt 0.546767 0.747661
vt 0.355410 0.991019
vt 0.354840 0.953481
vt 0.821506 0.457925
vt 0.733521 0.454658
vt 0.449484 0.988518
vt 0.448078 0.991845
vt 0.582510 0.661829
vt 0.584348 0.662429
vt 0.582501 0.665029
vt 0.010359 0.697799
vt 0.059155 0.781856
vt 0.494768 0.949074
vt 0.495310 0.865206
vt 0.545730 0.668253
vt 0.582493 0.667918
vt 0.819717 0.390180
vt 0.734227 0.391198
vt 0.441837 0.654165
vt 0.440020 0.657288
vt 0.059809 0.698053
vt 0.495233 0.781337
vt 0.909514 0.595643
vt 0.905377 0.646560
vt 0.442666 0.950756
vt 0.444654 0.988824
vt 0.095837 0.988777
vt 0.097239 0.992107
vt 0.582401 0.992038
vt 0.582417 0.988837
vt 0.584244 0.991451
vt 0.056266 0.865556
vt 0.056874 0.949364
vt 0.494603 0.697501
vt 0.272523 0.692921
vt 0.190126 0.694626
vt 0.272203 0.655490
vt 0.189579 0.657022
vt 0.915112 0.527408
vt 0.103063 0.654869
vt 0.104860 0.658003
vt 0.055558 0.781850
vt 0.498389 0.949097
vt 0.498920 0.865223
vt 0.354704 0.692960
vt 0.355152 0.655480
vt 0.914997 0.457891
vt 0.102685 0.951080
vt 0.100666 0.989087
vt 0.449201 0.657870
vt 0.447790 0.654543
vt 0.056179 0.698024
vt 0.498843 0.781315
vt 0.448097 0.865023
vt 0.905218 0.390146
vt 0.053865 0.949388
vt 0.498225 0.697471
vt 0.990284 0.581477
vt 0.990766 0.645051
vt 0.442448 0.695841
vt 0.444371 0.657567
vt 0.095676 0.658525
vt 0.097107 0.655209
vt 0.534855 0.865281
vt 0.534365 0.949199
vt 0.950713 0.192014
vt 0.950839 0.276230
vt 0.991789 0.517945
vt 0.260401 0.862151
vt 0.170528 0.867776
vt 0.260408 0.773384
vt 0.170710 0.779035
vt 0.102201 0.696334
vt 0.100509 0.658256
vt 0.534767 0.781203
vt 0.534191 0.697333
vt 0.990755 0.391158
vt 0.991792 0.454601
vt 0.951045 0.107822
vt 0.351852 0.862096
vt 0.351816 0.773421
vt 0.955096 0.363462
vt 0.951792 0.363370
vt 0.103852 0.989300
vt 0.105617 0.952097
vt 0.439755 0.951806
vt 0.951725 0.020705
vt 0.441424 0.989005
vt 0.439535 0.694801
vt 0.585806 0.665113
vt 0.441141 0.657380
vt 0.105114 0.695291
vt 0.585721 0.988776
vt 0.103745 0.658100
vt 0.104941 0.699493
vt 0.105427 0.947864
vt 0.439941 0.947585
vt 0.439724 0.699025
vt 0.100156 0.783202
vt 0.101182 0.863881
vt 0.188927 0.949411
vt 0.272563 0.949554
vt 0.356258 0.948966
vt 0.444352 0.863674
vt 0.444329 0.782983
vt 0.356136 0.697470
vt 0.272520 0.697413
vt 0.188707 0.699160
vn 0.9998 0.0194 0.0097
vn 0.9994 0.0332 0.0102
vn 0.5274 0.8490 0.0324
vn 0.9999 -0.0086 0.0088
vn 0.9994 0.0331 0.0101
vn 0.9999 -0.0086 0.0089
vn -0.9993 0.0366 -0.0079
vn -0.5131 0.8580 0.0233
vn -0.9987 0.0503 -0.0074
vn -0.9999 0.0087 -0.0088
vn -0.5132 0.8580 0.0233
vn -0.0083 -0.9993 -0.0362
vn -0.0084 -0.9995 -0.0314
vn -0.0131 -0.8667 0.4986
vn -0.0191 -0.8313 0.5555
vn -0.0148 0.1520 0.9883
vn -0.0226 0.0669 0.9975
vn -0.0171 -0.1342 0.9908
vn -0.0243 -0.1347 0.9906
vn -0.0083 -0.9994 -0.0326
vn -1.0000 0.0085 -0.0051
vn -0.9999 0.0081 0.0059
vn -0.0003 -0.8993 0.4374
vn -0.0083 -0.9996 -0.0286
vn -0.0029 -0.7681 0.6403
vn 0.0045 -0.1349 0.9908
vn -0.0074 -0.7653 0.6436
vn -0.0027 -0.1344 0.9909
vn -0.9999 0.0087 -0.0113
vn -0.0110 -0.9819 0.1890
vn -0.1772 -0.2522 0.9513
vn -0.0171 -0.7652 0.6435
vn -0.0081 -0.9994 -0.0326
vn -0.0086 -0.9994 -0.0326
vn -0.9998 0.0088 -0.0162
vn -0.0082 -0.9994 -0.0326
vn -0.0084 -0.9994 -0.0324
vn -0.0083 -0.9994 -0.0325
vn -0.0080 -0.0921 0.9957
vn 0.0145 0.0993 -0.9950
vn 0.0219 0.1632 -0.9864
vn 0.0169 0.8492 -0.5277
vn -0.0219 -0.7679 0.6402
vn -0.9998 0.0089 -0.0186
vn 0.9999 -0.0086 0.0087
vn 0.9999 -0.0087 0.0089
vn 0.0147 -0.0736 0.9972
vn -0.0083 -0.9994 -0.0350
vn -0.0083 -0.9995 -0.0314
vn 0.9998 -0.0089 0.0162
vn 1.0000 -0.0083 -0.0010
vn -0.0279 -0.9991 -0.0330
vn -0.0172 -0.9995 -0.0256
vn -0.0221 -0.9995 -0.0245
vn -0.0089 -0.9999 -0.0074
vn -0.0126 0.1104 0.9938
vn -0.0212 -0.0324 0.9993
vn -0.0139 -0.0324 0.9994
vn -0.0148 0.0687 -0.9975
vn -0.0034 0.8969 -0.4423
vn 0.0077 0.1262 -0.9920
vn 0.9997 -0.0090 0.0211
vn 0.9999 -0.0087 0.0113
vn 1.0000 -0.0085 0.0052
vn 0.9933 0.1144 0.0152
vn 0.9860 0.1662 0.0106
vn -0.0176 -0.9993 -0.0328
vn -0.0270 -0.9991 -0.0327
vn 0.9999 -0.0087 0.0090
vn 0.9999 -0.0087 0.0088
vn -0.0067 -0.0325 0.9994
vn 0.0205 -0.0411 -0.9989
vn 0.0133 -0.0410 -0.9991
vn 1.0000 -0.0084 0.0015
vn 0.9998 -0.0088 0.0160
vn 0.9933 0.1141 0.0197
vn -0.0165 -0.9991 -0.0383
vn -0.0254 -0.9991 -0.0345
vn 0.9999 -0.0086 0.0090
vn -0.0084 -0.9994 -0.0326
vn -0.0082 -0.9994 -0.0325
vn 0.0151 -0.0327 0.9994
vn 0.0062 -0.0244 -0.9997
vn -0.0098 -0.7336 -0.6795
vn -0.0051 -0.7367 -0.6762
vn 0.9999 -0.0081 -0.0059
vn -0.0106 -0.9988 -0.0488
vn -0.0154 -0.0072 -0.9999
vn 0.0043 -0.7368 -0.6761
vn 0.0007 -0.9997 -0.0252
vn -0.0084 -0.9999 -0.0079
vn 0.3385 0.0696 0.9384
vn 0.3155 -0.0335 0.9483
vn 0.7175 0.0088 0.6965
vn 0.7177 -0.0287 0.6958
vn -0.0085 -0.9994 -0.0325
vn 0.0060 -0.7827 -0.6224
vn 0.0019 -0.7824 -0.6228
vn 0.0090 -0.7338 -0.6793
vn -0.9891 0.1463 -0.0160
vn -0.9946 0.1033 -0.0131
vn -0.9997 0.0090 -0.0211
vn -0.9998 0.0089 -0.0163
vn 0.0032 -0.9995 -0.0322
vn -0.0006 -0.8162 -0.5778
vn -0.0063 -0.0728 -0.9973
vn 0.0009 -0.0734 -0.9973
vn -0.9831 0.1828 0.0039
vn -1.0000 0.0084 -0.0017
vn 0.0020 -0.9993 -0.0374
vn 0.3555 0.1302 -0.9256
vn 0.7300 0.0536 -0.6814
vn 0.3327 0.0279 -0.9426
vn 0.7302 0.0162 -0.6830
vn -0.9999 0.0086 -0.0088
vn -0.0145 -0.8622 -0.5064
vn 0.0154 -0.0735 -0.9972
vn 0.0062 0.0667 0.9978
vn 0.0093 0.9865 0.1635
vn 0.0000 0.1518 0.9884
vn -0.0080 -0.9987 -0.0510
vn -0.0083 -0.9995 -0.0318
vn 0.0226 -0.0730 -0.9971
vn 0.0125 -0.9994 -0.0319
vn 0.0058 -0.9997 -0.0249
vn -0.3537 0.0756 0.9323
vn -0.7294 0.0213 0.6838
vn -0.3327 -0.0279 0.9426
vn -0.7302 -0.0162 0.6830
vn -0.9999 0.0087 -0.0089
vn 0.0018 0.0326 -0.9995
vn -0.0054 0.0326 -0.9995
vn -0.0085 0.7943 0.6075
vn 0.0132 -0.9994 -0.0321
vn 0.0184 0.9993 0.0328
vn 0.0176 0.9995 0.0257
vn -0.0039 0.9995 0.0322
vn -0.0011 0.9997 0.0254
vn -0.3368 0.1362 -0.9317
vn -0.3155 0.0335 -0.9483
vn -0.7168 0.0660 -0.6941
vn -0.7177 0.0286 -0.6958
vn 0.0163 0.0324 -0.9993
vn 0.0236 0.0324 -0.9992
vn 0.0044 -0.9992 -0.0403
vn 0.0132 -0.9994 -0.0325
vn 0.0168 0.9991 0.0381
vn -0.0024 0.9993 0.0373
vn 0.9997 -0.0076 -0.0212
vn 0.9575 0.2883 -0.0079
vn 0.9931 0.1138 0.0274
vn -0.0084 -0.9994 -0.0325
vn 0.9997 -0.0091 0.0239
vn -0.9838 0.1775 0.0251
vn -0.0086 -0.9994 -0.0327
vn -0.9997 0.0076 0.0212
vn -0.9949 0.1002 -0.0122
vn -0.9998 0.0088 -0.0159
vn -0.0181 0.9995 0.0247
vn 0.0681 0.9974 0.0245
vn 0.1282 0.9912 0.0333
vn -0.0288 0.9988 0.0403
vn 0.0083 0.9998 -0.0180
vn 0.0101 0.9997 -0.0234
vn 0.0688 0.9971 0.0329
vn 0.0677 0.9972 0.0332
vn 0.0910 0.9952 0.0353
vn 0.0101 0.9928 0.1191
vn 0.0068 0.9950 0.0992
vn -0.0330 0.9989 0.0325
vn -0.0283 0.9991 0.0319
vn -0.0226 0.9992 0.0318
usemtl BOX
s 1
f 1/1/1 2/2/2 3/3/3
f 4/4/4 5/5/4 6/6/4
f 7/7/1 8/8/3 9/9/5
f 10/10/4 11/11/4 12/12/6
f 13/13/7 14/14/8 15/15/9
f 16/16/10 17/17/10 18/18/10
f 19/19/7 20/20/9 21/21/11
f 22/22/10 23/23/10 24/24/10
f 25/25/12 26/26/13 27/27/14
f 28/28/15 27/27/14 26/26/13
f 29/29/16 13/13/17 30/30/18
f 31/31/19 30/30/18 13/13/17
f 32/32/20 33/33/20 34/34/20
f 35/35/21 36/36/22 37/37/21
f 38/38/22 37/37/21 36/36/22
f 39/39/23 22/40/24 27/27/14
f 25/25/12 27/27/14 22/40/24
f 40/41/25 41/42/26 42/43/27
f 43/44/28 42/43/27 41/42/26
f 44/45/20 33/33/20 45/46/20
f 32/32/20 45/46/20 33/33/20
f 46/47/29 35/35/21 47/48/29
f 37/37/21 47/48/29 35/35/21
f 28/28/15 48/49/30 49/50/31
f 50/51/32 42/43/27 30/30/18
f 43/44/28 30/30/18 42/43/27
f 51/52/33 44/45/20 52/53/34
f 45/46/20 52/53/34 44/45/20
f 53/54/35 46/47/29 54/55/35
f 47/48/29 54/55/35 46/47/29
f 6/56/36 5/57/37 55/58/38
f 27/27/14 28/28/15 56/59/39
f 49/50/31 56/59/39 28/28/15
f 7/7/40 57/60/41 8/8/42
f 30/30/18 31/31/19 50/51/32
f 58/61/43 50/51/32 31/31/19
f 54/55/35 59/62/44 53/54/35
f 60/63/44 53/54/35 59/62/44
f 4/4/4 61/64/45 5/5/4
f 59/65/46 5/5/4 61/64/45
f 34/66/47 39/39/23 56/59/39
f 27/27/14 56/59/39 39/39/23
f 4/67/48 40/41/25 62/68/49
f 42/43/27 62/68/49 40/41/25
f 32/32/50 34/34/51 63/69/50
f 64/70/51 63/69/50 34/34/51
f 35/71/52 65/72/53 36/73/54
f 66/74/55 36/73/54 65/72/53
f 49/50/31 38/75/56 66/76/57
f 36/77/58 66/76/57 38/75/56
f 19/19/59 21/21/60 68/78/61
f 69/79/13 62/68/49 50/51/32
f 42/43/27 50/51/32 62/68/49
f 45/46/62 32/32/50 70/80/62
f 63/69/50 70/80/62 32/32/50
f 71/81/63 72/82/64 73/83/65
f 74/84/66 73/83/65 72/82/64
f 65/72/53 35/71/52 75/85/67
f 46/86/68 75/85/67 35/71/52
f 10/10/4 12/12/6 48/87/69
f 38/88/70 48/87/69 12/12/6
f 56/59/39 49/50/31 76/89/71
f 66/76/57 76/89/71 49/50/31
f 57/60/41 7/7/40 77/90/72
f 78/91/73 77/90/72 7/7/40
f 50/51/32 58/61/43 69/79/13
f 16/92/48 69/79/13 58/61/43
f 52/53/74 45/46/62 79/93/74
f 70/80/62 79/93/74 45/46/62
f 80/94/75 71/81/63 81/95/76
f 73/83/65 81/95/76 71/81/63
f 75/85/67 46/86/68 82/96/77
f 53/97/78 82/96/77 46/86/68
f 41/98/4 40/99/79 6/6/4
f 4/4/4 6/6/4 40/99/79
f 17/100/80 83/101/36 18/102/81
f 76/89/71 64/103/82 56/59/39
f 34/66/47 56/59/39 64/103/82
f 68/78/61 57/60/41 84/104/83
f 77/90/72 84/104/83 57/60/41
f 61/105/84 4/67/48 85/106/85
f 62/68/49 85/106/85 4/67/48
f 79/93/74 86/107/86 52/53/74
f 87/108/86 52/53/74 86/107/86
f 82/96/77 53/97/78 88/109/87
f 60/110/20 88/109/87 53/97/78
f 41/98/4 6/6/4 1/1/1
f 2/2/2 1/1/1 6/6/4
f 16/16/10 18/18/10 89/111/10
f 87/112/10 89/111/10 18/18/10
f 84/104/83 90/113/88 68/78/61
f 19/19/59 68/78/61 90/113/88
f 91/114/89 85/106/85 69/79/13
f 62/68/49 69/79/13 85/106/85
f 92/115/90 76/116/91 65/72/53
f 66/74/55 65/72/53 76/116/91
f 2/2/92 6/6/93 93/117/94
f 55/118/95 93/117/94 6/6/93
f 78/119/4 11/11/4 94/120/45
f 10/10/4 94/120/45 11/11/4
f 24/121/96 23/122/20 95/123/36
f 77/90/72 78/91/73 96/124/97
f 94/125/98 96/124/97 78/91/73
f 69/79/13 16/92/48 91/114/89
f 89/126/99 91/114/89 16/92/48
f 97/127/100 98/128/101 44/129/102
f 33/130/103 44/129/102 98/128/101
f 99/131/104 92/115/90 75/85/67
f 65/72/53 75/85/67 92/115/90
f 9/9/5 11/11/4 7/7/1
f 78/119/4 7/7/1 11/11/4
f 22/22/10 39/132/10 23/23/10
f 34/133/10 23/23/10 39/132/10
f 84/104/83 77/90/72 100/134/105
f 96/124/97 100/134/105 77/90/72
f 59/135/106 61/105/84 101/136/107
f 85/106/85 101/136/107 61/105/84
f 102/137/108 97/127/100 51/138/109
f 44/129/102 51/138/109 97/127/100
f 103/139/110 99/131/104 82/96/77
f 75/85/67 82/96/77 99/131/104
f 9/9/111 104/140/112 11/11/113
f 67/141/114 11/11/113 104/140/112
f 31/142/115 17/17/10 58/143/10
f 16/16/10 58/143/10 17/17/10
f 105/144/116 90/113/88 100/134/105
f 84/104/83 100/134/105 90/113/88
f 106/145/117 101/136/107 91/114/89
f 85/106/85 91/114/89 101/136/107
f 1/1/118 3/3/119 107/146/120
f 88/109/87 108/147/121 82/96/77
f 103/139/110 82/96/77 108/147/121
f 15/15/9 17/17/10 13/13/7
f 31/142/115 13/13/7 17/17/10
f 96/124/97 94/125/98 26/26/13
f 10/148/122 26/26/13 94/125/98
f 91/114/89 89/126/99 106/145/117
f 87/149/123 106/145/117 89/126/99
f 63/150/124 64/151/125 92/115/90
f 76/116/91 92/115/90 64/151/125
f 15/15/126 109/152/127 17/17/128
f 83/153/129 17/17/128 109/152/127
f 90/154/130 105/155/10 24/24/10
f 22/22/10 24/24/10 105/155/10
f 100/134/105 96/124/97 25/25/12
f 26/26/13 25/25/12 96/124/97
f 88/156/131 60/157/132 101/136/107
f 59/135/106 101/136/107 60/157/132
f 13/13/17 29/29/16 14/14/133
f 47/48/20 37/37/20 71/158/20
f 72/159/20 71/158/20 37/37/20
f 70/160/134 63/150/124 99/131/104
f 92/115/90 99/131/104 63/150/124
f 110/161/135 111/162/136 112/163/137
f 113/164/138 112/163/137 111/162/136
f 20/20/139 24/24/140 114/165/141
f 95/166/142 114/165/141 24/24/140
f 26/26/13 10/148/122 28/28/15
f 48/49/30 28/28/15 10/148/122
f 106/145/117 87/149/123 108/167/143
f 86/168/144 108/167/143 87/149/123
f 30/30/18 43/44/28 29/29/16
f 107/146/120 29/29/16 43/44/28
f 108/147/121 86/169/145 103/139/110
f 79/170/146 103/139/110 86/169/145
f 90/154/130 24/24/10 19/19/7
f 20/20/9 19/19/7 24/24/10
f 22/40/24 105/144/116 25/25/12
f 100/134/105 25/25/12 105/144/116
f 108/167/143 88/156/131 106/145/117
f 101/136/107 106/145/117 88/156/131
f 43/44/28 41/42/26 107/146/120
f 1/1/118 107/146/120 41/42/26
f 54/55/20 47/48/20 80/171/20
f 71/158/20 80/171/20 47/48/20
f 79/170/146 70/160/134 103/139/110
f 99/131/104 103/139/110 70/160/134
f 115/172/147 110/161/135 116/173/148
f 112/163/137 116/173/148 110/161/135
f 12/174/20 117/175/20 38/38/36
f 72/82/64 117/176/149 118/177/150
f 38/38/36 117/175/20 37/37/20
f 72/159/20 37/37/20 117/175/20
f 104/140/112 118/177/150 117/176/149
f 118/177/150 74/84/66 72/82/64
f 117/176/149 67/141/114 104/140/112
f 81/95/76 119/178/151 80/94/75
f 93/117/94 55/118/95 119/178/151
f 5/57/37 59/62/152 120/179/37
f 120/179/37 55/58/38 5/57/37
f 80/171/20 120/179/37 54/55/20
f 59/62/152 54/55/20 120/179/37
f 120/180/153 80/94/75 119/178/151
f 120/180/153 119/178/151 55/118/95
f 109/152/127 121/181/154 83/153/129
f 87/108/81 122/182/155 52/53/34
f 51/52/33 52/53/34 122/182/155
f 18/102/81 122/182/155 87/108/81
f 122/182/155 18/102/81 83/101/36
f 51/138/109 122/183/156 102/137/108
f 121/181/154 102/137/108 122/183/156
f 122/183/156 83/153/129 121/181/154
f 114/165/141 95/166/142 123/184/157
f 98/128/101 123/184/157 33/130/103
f 124/185/20 34/34/20 33/33/20
f 23/122/20 34/34/20 124/185/20
f 124/185/20 95/123/36 23/122/20
f 124/186/158 123/184/157 95/166/142
f 124/186/158 33/130/103 123/184/157
f 114/165/141 125/187/159 20/20/139
f 125/187/159 21/21/60 20/20/139
f 114/165/141 123/184/157 125/187/159
f 118/177/150 104/140/112 126/188/160
f 126/188/160 9/9/111 8/8/42
f 104/140/112 9/9/111 126/188/160
f 126/188/160 74/84/66 118/177/150
f 93/117/94 127/189/161 2/2/92
f 127/189/161 3/3/119 2/2/92
f 93/117/94 119/178/151 127/189/161
f 109/152/127 15/15/126 128/190/162
f 128/190/162 15/15/126 14/14/133
f 109/152/127 128/190/162 121/181/154
f 129/191/163 68/78/61 21/21/60
f 113/164/138 111/162/136 129/191/163
f 129/191/163 125/187/159 113/164/138
f 125/187/159 129/191/163 21/21/60
f 130/192/164 8/8/42 57/60/41
f 57/60/41 68/78/61 130/192/164
f 126/188/160 8/8/42 130/192/164
f 130/192/164 111/162/136 126/188/160
f 129/191/163 130/192/164 68/78/61
f 130/192/164 129/191/163 111/162/136
f 111/162/136 110/161/135 131/193/165
f 131/193/165 126/188/160 111/162/136
f 74/84/66 126/188/160 131/193/165
f 73/83/65 74/84/66 132/194/166
f 73/83/65 132/194/166 81/95/76
f 110/161/135 115/172/147 132/194/166
f 131/193/165 132/194/166 74/84/66
f 132/194/166 131/193/165 110/161/135
f 119/178/151 81/95/76 133/195/167
f 133/195/167 127/189/161 119/178/151
f 133/195/167 81/95/76 132/194/166
f 133/195/167 132/194/166 115/172/147
f 134/196/168 107/146/120 3/3/119
f 127/189/161 134/196/168 3/3/119
f 115/172/147 134/196/168 133/195/167
f 127/189/161 133/195/167 134/196/168
f 29/29/16 107/146/120 135/197/169
f 135/197/169 14/14/133 29/29/16
f 116/173/148 135/197/169 115/172/147
f 135/197/169 116/173/148 128/190/162
f 128/190/162 14/14/133 135/197/169
f 134/196/168 135/197/169 107/146/120
f 134/196/168 115/172/147 135/197/169
f 136/198/170 102/137/108 121/181/154
f 136/198/170 128/190/162 116/173/148
f 121/181/154 128/190/162 136/198/170
f 112/163/137 137/199/171 116/173/148
f 97/127/100 137/199/171 98/128/101
f 97/127/100 102/137/108 137/199/171
f 136/198/170 116/173/148 137/199/171
f 136/198/170 137/199/171 102/137/108
f 113/164/138 138/200/172 112/163/137
f 123/184/157 98/128/101 138/200/172
f 138/200/172 113/164/138 125/187/159
f 138/200/172 125/187/159 123/184/157
f 137/199/171 112/163/137 138/200/172
f 138/200/172 98/128/101 137/199/171
